<svg xmlns="http://www.w3.org/2000/svg" viewBox="0 0 512 512">
  <!-- Background -->
  <rect width="512" height="512" rx="112" fill="#0f1923"/>
  <!-- Chat bubble -->
  <path d="M128 160 C128 142 142 128 160 128 L352 128 C370 128 384 142 384 160 L384 288 C384 306 370 320 352 320 L192 320 L148 372 L160 320 L160 320 C142 320 128 306 128 288 Z" fill="#2563eb"/>
  <!-- Flame -->
  <path d="M256 176 C256 176 284 208 284 236 C284 251 276 260 264 264 C268 256 268 248 260 244 C260 260 248 272 236 272 C224 272 212 260 212 244 C212 220 236 204 236 204 C232 216 236 224 244 228 C240 212 248 192 256 176 Z" fill="#f97316"/>
</svg>
